<?xml version="1.0" encoding="UTF-8"?> <svg xmlns="http://www.w3.org/2000/svg" id="iconsのコピー" viewBox="0 0 512 512"><defs><style> .cls-1 { fill: #002a5b; } </style></defs><path class="cls-1" d="m386.76,147.45h-25.65l-3.08-46.35c6.43-.19,13.03-.29,19.83-.29v-28c-96.69,0-158.34,19.17-183.9,29.15l-38.74-67.11c-2.57-4.45-6.71-7.63-11.67-8.96-4.96-1.33-10.14-.65-14.59,1.92l-4.82,2.78c-9.18,5.3-12.34,17.08-7.04,26.26l32.06,55.53v35.07h-23.92l-4,74.86h15.27l11.44,257.91h216.1l11.44-257.91h15.27l-4-74.86Zm-94.57-17.79c-24.01-5.62-46.97-8.65-61.96-10.2,16.06-4.59,37.27-9.48,63.5-13.1l-1.55,23.3Zm55.94,122.67h-31.21v20h30.32l-1.42,32h-28.9v20h28.02l-1.42,32h-26.6v20h25.71l-1.42,32h-24.29v20h23.41l-1.15,25.89h-166.35l-10.29-231.91h186.93l-1.33,30.02Z"></path></svg> 